<svg xmlns="http://www.w3.org/2000/svg" viewBox="0 0 96 96">
  <rect width="96" height="96" rx="20" fill="#232A5C"/>
  <path d="M48 15c16 0 29 13 29 32 0 22-13 34-29 34S19 69 19 47c0-19 13-32 29-32Z" fill="#7E8BE6" stroke="#141A45" stroke-width="4"/>
  <path d="M31 31h34l-4-13H35l-4 13Z" fill="#F8FAFC" stroke="#141A45" stroke-width="4" stroke-linejoin="round"/>
  <path d="M33 31h30" stroke="#E44D5E" stroke-width="5" stroke-linecap="round"/>
  <circle cx="37" cy="49" r="5" fill="#12131A"/>
  <circle cx="59" cy="49" r="5" fill="#12131A"/>
  <path d="M37 65c7 5 15 5 22 0" fill="none" stroke="#12131A" stroke-width="5" stroke-linecap="round"/>
  <path d="M72 66l13 13" stroke="#F8FAFC" stroke-width="6" stroke-linecap="round"/>
  <path d="M74 64l13 13" stroke="#F59E0B" stroke-width="3" stroke-linecap="round"/>
</svg>
