<svg xmlns="http://www.w3.org/2000/svg" viewBox="0 0 96 96">
  <rect width="96" height="96" rx="20" fill="#6E969D"/>
  <circle cx="48" cy="52" r="34" fill="#C9B879" stroke="#2E3B3F" stroke-width="4"/>
  <ellipse cx="48" cy="45" rx="25" ry="27" fill="#D99258" stroke="#2E3B3F" stroke-width="3"/>
  <path d="M18 35C12 19 29 8 57 11c25 3 33 18 20 29-17-5-39-5-59-5Z" fill="#D8C891" stroke="#2E3B3F" stroke-width="4" stroke-linejoin="round"/>
  <path d="M32 35c10-8 28-8 44 1" fill="none" stroke="#8E7D45" stroke-width="5" stroke-linecap="round"/>
  <circle cx="38" cy="45" r="5" fill="#F7F6ED" stroke="#2E3B3F" stroke-width="2"/>
  <circle cx="58" cy="45" r="5" fill="#F7F6ED" stroke="#2E3B3F" stroke-width="2"/>
  <circle cx="39" cy="46" r="2.2" fill="#17201C"/>
  <circle cx="57" cy="46" r="2.2" fill="#17201C"/>
  <ellipse cx="48" cy="55" rx="7" ry="10" fill="#E7A66E" stroke="#6B3B24" stroke-width="2"/>
  <path d="M46 56h4" stroke="#6B3B24" stroke-width="2" stroke-linecap="round"/>
  <path d="M45 62c-12-9-25-4-24 7 9 6 21 3 27-5Z" fill="#244C43" stroke="#17342E" stroke-width="2"/>
  <path d="M51 62c12-9 25-4 24 7-9 6-21 3-27-5Z" fill="#244C43" stroke="#17342E" stroke-width="2"/>
  <path d="M40 77c5 4 11 4 16 0" fill="none" stroke="#2E2118" stroke-width="3" stroke-linecap="round"/>
  <path d="M73 73l12 12" stroke="#2E3B3F" stroke-width="7" stroke-linecap="round"/>
  <path d="M74 72l12 12" stroke="#B48643" stroke-width="3" stroke-linecap="round"/>
</svg>
